<mxfile host="app.diagrams.net" modified="2021-07-24T02:27:43.163Z" agent="5.0 (Macintosh; Intel Mac OS X 10_15_7) AppleWebKit/537.36 (KHTML, like Gecko) Chrome/91.0.4472.164 Safari/537.36" etag="4kXg-T29h_7xmX2mMezO" version="14.9.2" type="github">
  <diagram id="f6Cb9-nQAVSAN5W1VMzi" name="Page-1">
    <mxGraphModel dx="1554" dy="841" grid="1" gridSize="10" guides="1" tooltips="1" connect="1" arrows="1" fold="1" page="1" pageScale="1" pageWidth="827" pageHeight="1169" math="0" shadow="0">
      <root>
        <mxCell id="0" />
        <mxCell id="1" parent="0" />
        <mxCell id="E1LTU6uZUXUtG9sQqujp-3" value="" style="edgeStyle=orthogonalEdgeStyle;rounded=0;orthogonalLoop=1;jettySize=auto;html=1;" edge="1" parent="1" source="E1LTU6uZUXUtG9sQqujp-1" target="E1LTU6uZUXUtG9sQqujp-2">
          <mxGeometry relative="1" as="geometry" />
        </mxCell>
        <mxCell id="E1LTU6uZUXUtG9sQqujp-1" value="fdsa" style="rounded=0;whiteSpace=wrap;html=1;" vertex="1" parent="1">
          <mxGeometry x="170" y="200" width="120" height="60" as="geometry" />
        </mxCell>
        <mxCell id="E1LTU6uZUXUtG9sQqujp-2" value="fdsafdsa" style="whiteSpace=wrap;html=1;rounded=0;" vertex="1" parent="1">
          <mxGeometry x="370" y="200" width="120" height="60" as="geometry" />
        </mxCell>
      </root>
    </mxGraphModel>
  </diagram>
</mxfile>
